HIERARCHY
ROOT Hips
{
  OFFSET -125.086 92.215 135.881
  CHANNELS 6 Xposition Yposition Zposition Zrotation Xrotation Yrotation
  JOINT LeftUpLeg
  {
    OFFSET 8.64259 1.95398 -2.38835
    CHANNELS 3 Zrotation Xrotation Yrotation
    JOINT LeftLeg
    {
      OFFSET 43.7702 0 0
      CHANNELS 3 Zrotation Xrotation Yrotation
      JOINT LeftFoot
      {
        OFFSET 40.6238 0 0
        CHANNELS 3 Zrotation Xrotation Yrotation
        JOINT LeftToeBase
        {
          OFFSET 12.7242 0 0
          CHANNELS 3 Zrotation Xrotation Yrotation
          End Site
          {
            OFFSET 0 0 0
          }
        }
      }
    }
  }
  JOINT RightUpLeg
  {
    OFFSET -8.2249 1.95398 -2.59336
    CHANNELS 3 Zrotation Xrotation Yrotation
    JOINT RightLeg
    {
      OFFSET 43.5653 0 0
      CHANNELS 3 Zrotation Xrotation Yrotation
      JOINT RightFoot
      {
        OFFSET 40.6238 0 0
        CHANNELS 3 Zrotation Xrotation Yrotation
        JOINT RightToeBase
        {
          OFFSET 12.7242 0 0
          CHANNELS 3 Zrotation Xrotation Yrotation
          End Site
          {
            OFFSET 0 0 0
          }
        }
      }
    }
  }
  JOINT Spine
  {
    OFFSET 0.165834 0.87714 6.61349
    CHANNELS 3 Zrotation Xrotation Yrotation
    JOINT Spine1
    {
      OFFSET 7.38963 1.71661e-005 0
      CHANNELS 3 Zrotation Xrotation Yrotation
      JOINT Spine2
      {
        OFFSET 11.9445 1.14441e-005 0
        CHANNELS 3 Zrotation Xrotation Yrotation
        JOINT Spine3
        {
          OFFSET 14.7254 4.19617e-005 0
          CHANNELS 3 Zrotation Xrotation Yrotation
          JOINT Spine4
          {
            OFFSET 10.9679 0 0
            CHANNELS 3 Zrotation Xrotation Yrotation
            JOINT RightShoulder
            {
              OFFSET 2.46616 -1.6653 3.69651
              CHANNELS 3 Zrotation Xrotation Yrotation
              JOINT RightArm
              {
                OFFSET 13.0012 0 0
                CHANNELS 3 Zrotation Xrotation Yrotation
                JOINT RightForeArm
                {
                  OFFSET 28.7848 1.52588e-005 0
                  CHANNELS 3 Zrotation Xrotation Yrotation
                  JOINT RightHand
                  {
                    OFFSET 26.5688 1.52588e-005 0
                    CHANNELS 3 Zrotation Xrotation Yrotation
                    End Site
                    {
                      OFFSET 0 0 0
                    }
                  }
                }
              }
            }
            JOINT LeftShoulder
            {
              OFFSET 2.38034 -1.29275 -3.7523
              CHANNELS 3 Zrotation Xrotation Yrotation
              JOINT LeftArm
              {
                OFFSET 16.3182 6.10352e-005 0
                CHANNELS 3 Zrotation Xrotation Yrotation
                JOINT LeftForeArm
                {
                  OFFSET 27.0901 0 0
                  CHANNELS 3 Zrotation Xrotation Yrotation
                  JOINT LeftHand
                  {
                    OFFSET 24.5451 1.52588e-005 0
                    CHANNELS 3 Zrotation Xrotation Yrotation
                    End Site
                    {
                      OFFSET 0 0 0
                    }
                  }
                }
              }
            }
            JOINT Neck
            {
              OFFSET 5.0226 -0.0266342 0
              CHANNELS 3 Zrotation Xrotation Yrotation
              JOINT Head
              {
                OFFSET 6.69363 2.86102e-005 0
                CHANNELS 3 Zrotation Xrotation Yrotation
                End Site
                {
                  OFFSET 0 0 0
                }
              }
            }
          }
        }
      }
    }
  }
}
MOTION
Frames:	13
Frame Time:	0.0416667
-262.036 89.6866 302.303 -84.4684 -53.7657 -79.128 -174.621 27.1375 89.4264 -29.3154 12.1844 -1.30421 64.9022 4.98509 5.3856 24.005 0.896207 -3.02941 175.202 3.65501 95.3251 -35.2426 -4.6866 1.77586 47.3081 4.4481 31.9052 68.6913 -3.9931 8.79535 -4.52552 6.21199 -87.557 14.6666 -7.7534 6.02331 3.00331 -7.48132 6.35873 -19.6739 -9.20231 3.40453 0.338698 -9.20231 3.40452 74.9497 -54.038 -121.73 56.8607 -1.79405 -9.00447 1.21797 -49.8218 -5.22867 -6.84214 -0.280032 -0.447021 -81.9016 4.55398 79.7288 -65.0945 -39.6851 34.374 28.4243 15.8178 -25.9671 -8.44227 -0.105073 -4.09568 -37.7803 30.592 -43.7553 6.17756 28.0872 52.2571 
-257.141 90.6583 296.922 -85.7924 -53.1366 -79.0224 -175.385 25.297 90.8903 -17.2267 11.0477 -0.656545 56.3869 0.634004 -1.99653 32.1245 -0.438782 3.40966 178.57 2.7301 98.8615 -29.9117 -5.05322 1.5323 59.7029 0.967164 19.225 51.2942 -3.30395 2.18914 -4.1844 7.29227 -88.1087 12.4497 -7.4158 4.62531 0.790548 -7.20525 4.94785 -21.8958 -8.46096 2.17143 -1.88314 -8.46092 2.17143 79.1347 -50.4442 -117.268 55.1632 -9.25638 -18.6545 -3.53829 -41.5994 -15.714 -8.77628 -0.275481 -1.61352 -79.0007 6.82161 90.8539 -76.7066 -33.5946 20.4384 30.2632 20.7486 -25.1345 -10.5688 -0.0832729 -4.44602 -23.7741 25.4999 -50.396 0.672366 24.9848 56.1992 
-252.098 90.8001 291.484 -87.9843 -54.9116 -80.1871 -177.166 24.2225 92.5804 -11.5448 15.3371 0.991471 49.5919 -1.76873 -9.11813 45.9801 -0.992737 15.0108 179.195 3.12361 100.149 -26.739 -1.71496 1.81975 67.7456 -1.53375 15.159 38.6039 -1.54963 -0.171735 -3.90551 8.3422 -88.6393 10.2997 -7.15924 3.32048 -1.35652 -7.00622 3.63338 -24.0455 -7.82439 1.00388 -4.03281 -7.82437 1.00387 83.8387 -49.5964 -110.573 49.356 -13.9115 -26.1761 -7.47144 -37.2458 -25.0285 -8.82736 -0.163295 -3.19764 -76.3237 2.28008 102.785 -78.5413 -23.8549 6.89678 30.9239 29.9895 -25.4444 -14.3946 0.0815321 -5.95914 -9.62229 16.9971 -56.9217 -6.7847 18.9708 59.3867 
-247.211 91.0375 286.773 -93.3333 -56.8955 -85.7885 179.365 25.0236 92.8753 -29.2175 12.5418 3.77901 56.1936 3.24545 -0.7059 48.2095 -0.909691 13.8295 178.764 3.65717 98.9318 -26.8139 0.265799 1.11003 70.8339 -1.30305 14.186 30.1487 -0.0635939 -1.69082 -3.65453 9.25674 -89.02 8.43439 -6.86045 2.35777 -3.22108 -6.75005 2.65856 -25.9019 -7.25033 0.176529 -5.88928 -7.25033 0.176525 87.9397 -47.9031 -104.784 45.7708 -14.0545 -30.296 -8.04392 -35.2111 -26.7395 -9.61305 -0.208246 -2.77935 -71.929 -11.5022 113.041 -69.2895 -13.6815 -8.94339 28.6936 39.0855 -23.4725 -13.633 0.123341 -6.55317 6.58166 5.77585 -58.5823 -17.6623 10.615 58.3016 
-242.486 91.5346 282.575 -100.106 -57.1135 -94.1713 179.103 22.3041 92.3315 -51.2569 5.16639 5.08517 59.908 6.16551 0.568136 49.4644 -0.809392 14.4789 177.251 5.42575 95.0688 -29.9762 -1.42122 0.488298 69.8951 -0.155001 15.4173 27.7607 0.728683 -5.24006 -3.53712 9.49938 -88.9096 7.9475 -6.58424 2.51783 -3.70974 -6.46707 2.80611 -26.378 -7.03517 0.413457 -6.36539 -7.03516 0.41346 89.9531 -47.9892 -101.605 44.9825 -11.6005 -28.9851 -2.04544 -37.6383 -16.4955 -12.3461 -0.384485 -1.61491 -70.3285 -15.6886 115.523 -66.9636 -9.02201 -16.4492 27.6292 41.5671 -21.8372 -10.3735 -0.00317306 -5.61904 14.0478 3.90121 -47.6934 -25.0498 8.2639 44.8893 
-237.688 91.7373 278.456 -105.866 -57.83 -102.218 179.113 14.3429 91.8077 -62.5149 3.86374 5.93536 58.2745 5.8418 1.64378 48.5871 -0.832931 14.6847 175.877 8.13374 91.0376 -33.002 -4.52411 -0.0522861 67.0861 0.327322 13.2654 29.0299 0.607794 -6.64636 -3.63791 9.47349 -88.6994 8.01052 -6.69265 2.94453 -3.64717 -6.5566 3.23711 -26.3177 -7.26673 0.787542 -6.30509 -7.26672 0.787537 91.5636 -49.2492 -98.8034 45.4441 -5.67182 -26.1089 3.75753 -43.9406 -3.4051 -10.0358 -0.459935 0.163542 -70.4953 -17.1184 114.651 -64.7883 -5.759 -19.3156 26.5291 38.66 -24.214 -8.80553 0.0123247 -6.19059 15.0739 4.5342 -42.2287 -26.4957 8.31533 39.0785 
-232.908 91.7341 274.564 -106.85 -60.4506 -103.51 178.843 6.25773 94.7395 -61.6314 7.88308 8.004 57.0651 4.39943 -1.6481 48.9201 -0.81939 14.4839 175.329 11.6818 89.3444 -31.8073 -5.48741 0.291983 62.6498 1.47934 12.2172 30.0321 0.381731 -6.57036 -3.66084 9.25346 -89.019 8.44387 -6.87263 2.36636 -3.21154 -6.76183 2.66768 -25.8931 -7.26455 0.18099 -5.88042 -7.26453 0.180993 93.7571 -50.6214 -95.1557 44.7523 2.32237 -21.4351 2.59462 -47.8285 0.363465 -6.55673 -0.369367 1.52004 -70.4596 -22.1479 113.249 -59.5691 -2.34398 -24.1845 25.2376 38.1008 -26.4395 -7.43151 0.0125138 -6.73465 16.8 2.89143 -41.2155 -27.3304 6.98328 38.0701 
-228.139 91.8032 270.59 -106.232 -64.6367 -101.913 -179.644 -1.11985 97.9171 -49.7189 15.6864 11.0412 58.8932 4.35722 -5.15471 50.3122 -0.863997 13.1777 175.13 13.7117 89.0106 -26.2446 -3.12469 0.850873 57.0856 3.19007 12.3301 32.6912 -0.476818 -1.68399 -3.6885 8.89186 -89.4803 9.14802 -7.12424 1.53683 -2.50462 -7.04969 1.85035 -25.1974 -7.25503 -0.686856 -5.18475 -7.25502 -0.68686 97.0799 -53.4077 -89.7815 39.9343 7.73064 -17.2227 0.617539 -48.3532 0.000106708 -5.56858 -0.311954 1.49104 -71.2944 -26.7753 110.356 -55.2689 0.0737456 -27.9703 23.5115 37.4932 -27.1375 -6.78532 0.0210076 -7.26317 15.9502 1.51452 -39.3689 -26.5924 5.68939 34.8841 
-221.81 91.2656 265.971 -103.538 -66.301 -99.0313 -176.584 -5.02506 97.6915 -36.3268 19.2921 10.9709 64.5128 7.31978 -1.81644 60.0356 -0.965437 10.6943 174.679 16.4245 87.1462 -19.317 -4.09334 1.1754 49.9554 4.66988 12.2908 41.8618 -2.13074 -5.07359 -3.33727 8.52403 -89.7942 9.86393 -6.55854 0.936515 -1.79096 -6.51097 1.22546 -24.4579 -6.53545 -1.0866 -4.44522 -6.53547 -1.0866 101.223 -55.3384 -83.5502 35.2234 10.9717 -14.5282 -0.083939 -45.5637 -3.52026e-005 -6.04623 -0.394945 2.65081 -72.1478 -32.0535 107.736 -49.6303 2.50956 -31.7832 22.1191 39.4689 -28.528 -7.38411 0.0603807 -7.81732 15.1185 -0.116869 -36.8709 -26.2062 3.81172 31.8327 
-214.484 91.1507 260.247 -106.089 -64.3799 -102.115 -173.535 -7.14004 94.4606 -27.156 19.6466 7.56603 69.5531 12.1719 9.41629 51.3997 -1.315 7.16042 174.54 16.6107 84.907 -13.2289 -1.76937 0.489546 52.4842 2.7999 12.827 45.2463 -2.83731 -5.50013 -2.66545 8.55509 -89.7639 9.79262 -5.20615 0.881289 -1.86837 -5.16231 1.11016 -24.4868 -5.22969 -0.728509 -4.4742 -5.22969 -0.728512 105.487 -56.8032 -77.4015 30.3226 10.206 -12.1982 0.934619 -41.1102 -0.326685 -4.73362 -0.287647 2.14187 -73.7254 -36.6565 104.241 -45.1255 3.42498 -33.6447 23.4431 43.7147 -31.395 -7.80883 0.15092 -9.46395 14.0181 -1.5405 -33.0176 -24.0686 2.27756 28.0619 
-207.76 91.7194 254.623 -104.702 -59.3939 -103.465 -173.624 -5.33661 89.2858 -22.3283 17.4745 3.42805 68.5114 10.8106 11.8007 44.0796 -1.27289 1.77761 172.994 17.8242 82.3659 -12.4458 9.14344 0.811952 55.2077 1.63892 18.9109 44.3087 -2.52793 -2.80815 -1.82996 8.49601 -89.5396 9.90035 -3.4382 1.19291 -1.7668 -3.38238 1.34321 -24.3378 -3.63757 0.103158 -4.32518 -3.63758 0.103144 109.174 -56.1787 -72.035 27.9977 6.75732 -9.58073 -0.305713 -36.7802 -5.99815 -5.08793 -0.256816 0.79978 -74.834 -41.6784 101.933 -39.5749 3.09526 -33.6814 17.5004 46.5604 -26.3331 -5.85443 0.0410541 -8.70229 13.3792 -1.57293 -24.116 -22.3808 1.39301 20.1541 
-202.61 92.1639 250.233 -103.234 -55.2894 -100.504 -174.107 0.130178 89.9453 -25.1926 13.2846 2.38485 68.1407 8.57706 10.9199 38.7958 -0.900763 1.27417 168.878 20.9138 84.4933 -31.0552 4.96992 3.55522 52.6538 2.1899 20.588 47.5451 -3.18391 -3.84663 -1.11425 8.45345 -89.8729 9.97374 -2.16288 0.430499 -1.69547 -2.14183 0.525314 -24.2453 -2.19221 -0.239764 -4.23261 -2.19221 -0.239755 108.828 -52.3405 -72.08 29.8984 2.56321 -7.2461 -2.78245 -33.8377 -13.8839 -7.52894 -0.346484 0.205983 -75.2001 -45.0189 101.128 -40.7773 -1.81697 -29.492 16.0253 51.4995 -19.6886 -5.26217 -0.00265319 -7.83813 13.6895 -0.915551 -14.2002 -23.031 0.494815 13.5858 
-198.869 92.2046 246.147 -102.651 -53.3294 -98.1902 -173.793 4.75369 90.1386 -27.3013 12.7552 2.00312 67.5583 6.8348 10.82 35.0551 -0.554223 0.286024 167.08 20.0786 86.5254 -51.6101 -4.63591 2.86226 52.5029 2.03343 19.0005 52.5731 -4.06414 -3.12978 -0.667298 8.29401 -90.121 10.2857 -1.38476 -0.121041 -1.38457 -1.38874 -0.0599773 -23.925 -1.28436 -0.531701 -3.91231 -1.28432 -0.53169 109.541 -51.5776 -70.8995 29.244 -1.09138 -7.02679 -4.67114 -32.5134 -20.2851 -9.01738 -0.494015 1.25769 -75.9483 -45.9263 99.8909 -42.8775 -8.48291 -23.2638 14.5038 57.9759 -11.5741 -6.30865 0.0118652 -7.34886 12.0832 -0.808912 -9.95599 -22.6591 0.0397902 9.67011 
